<svg xmlns="http://www.w3.org/2000/svg" width="35.892" height="23.831" viewBox="0 0 35.892 23.831"><defs><style>.a{fill:#de6f36;}.b{fill:#9e937c;}.c{fill:#644e41;}.d{fill:#bcae93;}.e{fill:#cbbb9d;}.f{fill:#eabb72;}.g{fill:#b95e2c;}.h{fill:#7d7463;}.i{fill:#f38c56;}</style></defs><path class="a" d="M227.188,390.713h0a13.89,13.89,0,0,0-8.286.038c.064.229.132.455.205.677l6.736,3.68h0l.057.019a13.893,13.893,0,0,1,2.069-4.148C227.714,390.883,227.455,390.8,227.188,390.713Z" transform="translate(-208.394 -385.242)"/><g transform="translate(0 0.613)"><path class="b" d="M309.058,372.11l-4.138,13.332,5.091-13C309.7,372.32,309.381,372.209,309.058,372.11Z" transform="translate(-274.12 -372.11)"/><path class="b" d="M179.426,429.94a7.4,7.4,0,0,1-.481-.892,8.044,8.044,0,0,1-.646-3.964c-.026-.1-.052-.2-.073-.295a13.968,13.968,0,0,0-3.855,6.158l.762.229,12.608,3.789a13.886,13.886,0,0,1-3.539-1.649A8.047,8.047,0,0,1,179.426,429.94Z" transform="translate(-174.37 -412.361)"/></g><path class="c" d="M292.092,392.3a1.151,1.151,0,1,1-1.437.764A1.149,1.149,0,0,1,292.092,392.3Z" transform="translate(-263.181 -386.881)"/><path class="d" d="M265.576,370a13.888,13.888,0,0,0-6.823-.12c-.193.045-.387.094-.578.149a13.947,13.947,0,0,0-9.6,9.369l3.643,1.111,6.2,1.895,1.168.356,2.284.7,4.138-13.332C265.866,370.08,265.72,370.04,265.576,370Zm-4.829,6.363a1.151,1.151,0,1,1-.764-1.437A1.149,1.149,0,0,1,260.747,376.363Z" transform="translate(-231.072 -369.512)"/><path class="e" d="M246.187,414.711l-1.168-.356-6.2-1.895-3.643-1.111-.057-.019h0v0l-.019.059-.17.559-.92,3.013-2.593,8.482-.378,1.234a13.958,13.958,0,0,0,13.575-3.114,13.792,13.792,0,0,0,1.715-1.911,13.989,13.989,0,0,0,2.128-4.207c0-.014.007-.026.012-.04Z" transform="translate(-217.67 -401.464)"/><path class="f" d="M209.177,411.33l-.078.045-.694.4-2.5,1.444-8.812,5.087a13.91,13.91,0,0,0,8.01,6.372l.378-1.234,2.593-8.482.92-3.013.17-.559.019-.059v0Z" transform="translate(-191.73 -401.464)"/><path class="g" d="M219.77,395.73c.054.168.113.333.175.5a13.637,13.637,0,0,0,.592,1.361l1.557.477,4.412,1.347Z" transform="translate(-209.059 -389.544)"/><path class="h" d="M192.361,429.548a13.962,13.962,0,0,1-1.432-3.508,8.045,8.045,0,0,0,.646,3.964,7.4,7.4,0,0,0,.481.892,8.047,8.047,0,0,0,4.775,3.376A13.908,13.908,0,0,1,192.361,429.548Z" transform="translate(-187.001 -412.703)"/><path class="i" d="M198.7,396.78l-1.557-.477-3.931-1.2-.849-.26-2.6-.793a13.919,13.919,0,0,0-.613,4.077c0,.21,0,.42.014.628a13.72,13.72,0,0,0,.354,2.548c.021.1.047.2.073.295a13.96,13.96,0,0,0,1.432,3.508l8.812-5.087,2.5-1.444.694-.4.078-.045Z" transform="translate(-185.663 -388.261)"/></svg>