<svg xmlns="http://www.w3.org/2000/svg" width="50" height="50" viewBox="0 0 50 50"><defs><style>.a{fill:#2bb3c9;}.b{fill:none;stroke:#fff;stroke-linecap:round;stroke-linejoin:round;stroke-width:3px;}</style></defs><g transform="translate(-90 -222)"><path class="a" d="M25,0A25,25,0,1,1,0,25,25,25,0,0,1,25,0Z" transform="translate(90 222)"/><g transform="translate(102 234.5)"><path class="b" d="M3,4.5H9a4,4,0,0,1,4,4v14a3,3,0,0,0-3-3H3Z"/><path class="b" d="M28,4.5H22a4,4,0,0,0-4,4v14a3,3,0,0,1,3-3h7Z" transform="translate(-5)"/></g></g></svg>