<svg xmlns="http://www.w3.org/2000/svg" width="17" height="13.813" viewBox="0 0 17 13.813"><path d="M2.656,58.625H.531A.531.531,0,0,0,0,59.156v2.125a.531.531,0,0,0,.531.531H2.656a.531.531,0,0,0,.531-.531V59.156A.531.531,0,0,0,2.656,58.625ZM2.656,48H.531A.531.531,0,0,0,0,48.531v2.125a.531.531,0,0,0,.531.531H2.656a.531.531,0,0,0,.531-.531V48.531A.531.531,0,0,0,2.656,48Zm0,5.312H.531A.531.531,0,0,0,0,53.844v2.125a.531.531,0,0,0,.531.531H2.656a.531.531,0,0,0,.531-.531V53.844A.531.531,0,0,0,2.656,53.312Zm13.813,5.844H5.844a.531.531,0,0,0-.531.531V60.75a.531.531,0,0,0,.531.531H16.469A.531.531,0,0,0,17,60.75V59.688A.531.531,0,0,0,16.469,59.156Zm0-10.625H5.844a.531.531,0,0,0-.531.531v1.063a.531.531,0,0,0,.531.531H16.469A.531.531,0,0,0,17,50.125V49.062A.531.531,0,0,0,16.469,48.531Zm0,5.313H5.844a.531.531,0,0,0-.531.531v1.063a.531.531,0,0,0,.531.531H16.469A.531.531,0,0,0,17,55.437V54.375A.531.531,0,0,0,16.469,53.844Z" transform="translate(0 -48)"/></svg>